<!-- Save this as rust-banner.svg -->
<svg width="800" height="120" xmlns="http://www.w3.org/2000/svg">
  <defs>
    <linearGradient id="grad" x1="0%" y1="0%" x2="100%" y2="0%">
      <stop offset="0%" stop-color="#dea584"></stop>
      <stop offset="100%" stop-color="#ff6e40"></stop>
    </linearGradient>
    <style>
      .title { font: bold 36px 'Segoe UI', Tahoma, Geneva, Verdana, sans-serif; fill: url(#grad);}
      .subtitle { font: 18px 'Segoe UI', Tahoma, Geneva, Verdana, sans-serif; fill: #555; }
      .rust-logo { fill: #dea584; }
    </style>
  </defs>
  <!-- Rust gear logo -->
  <g transform="translate(20,20) scale(0.8)">
    <path class="rust-logo" d="M35.57 0a35.57 35.57 0 1 0 35.57 35.57A35.61 35.61 0 0 0 35.57 0Zm17.18 48.3c-1 2.49-2.1 4.8-3.37 6.69l-5.39-2.91a12.15 12.15 0 0 1-3.72 2.13l-1.06 6.42a37.8 37.8 0 0 1-7.23-1.6L32.2 54a11.62 11.62 0 0 1-4.15-3.8l-5.53 3a37.9 37.9 0 0 1-3.31-6.92l5.61-2.27a11.56 11.56 0 0 1 .3-4.54l-3.43-3.86a36.32 36.32 0 0 1 5.32-5.16l4.21 4.35a11.78 11.78 0 0 1 4.38-.55l1.55-5.86a38 38 0 0 1 6.75 3.54l-3.28 5.4a11.82 11.82 0 0 1 1.86 4.38Zm-11.26-11.72-7.18 6.53-2.69-1.17 9.32-8.47 2.16 1.1Z"></path>
  </g>
  <!-- Text -->
  <text x="120" y="50" class="title">Benjamin | Rust Developer</text>
  <text x="120" y="85" class="subtitle">Fullstack &amp; System Design Learner</text>
</svg>
